<svg width="1500" height="500" viewBox="0 0 1500 500" fill="none" xmlns="http://www.w3.org/2000/svg">
<g clip-path="url(#clip0_691_2)">
<rect width="1500" height="500" fill="white"/>
<g clip-path="url(#clip1_691_2)">
<rect width="1500" height="1100" transform="translate(0 -245)" fill="url(#paint0_radial_691_2)" fill-opacity="0.4"/>
<rect width="1500" height="1100" transform="translate(0 -245)" fill="url(#paint1_radial_691_2)" fill-opacity="0.3"/>
<rect width="1500" height="1100" transform="translate(0 -245)" fill="url(#paint2_radial_691_2)" fill-opacity="0.2"/>
<path d="M1515.11 432.674C1268.17 426.999 1355.73 78.7712 1102.25 91.4723C1100.89 91.5197 1099.59 92.0796 1098.63 93.0397L1048.55 143.088C1047.8 143.846 1047.3 144.807 1047.1 145.851C1046.9 146.894 1047.01 147.974 1047.42 148.954C1047.83 149.934 1048.52 150.772 1049.4 151.363C1050.28 151.954 1051.32 152.271 1052.39 152.276C1295.27 150.546 1208.25 498.179 1464.55 493.855C1465.97 493.835 1467.33 493.252 1468.33 492.234L1518.79 441.862C1519.53 441.113 1520.03 440.167 1520.24 439.138C1520.44 438.109 1520.34 437.042 1519.95 436.068C1519.56 435.094 1518.9 434.254 1518.04 433.652C1517.18 433.049 1516.16 432.709 1515.11 432.674Z" fill="#422A05"/>
<path d="M1515.11 432.674C1268.17 426.999 1355.73 78.7712 1102.25 91.4723C1100.89 91.5197 1099.59 92.0796 1098.63 93.0397L1048.55 143.088C1047.8 143.846 1047.3 144.807 1047.1 145.851C1046.9 146.894 1047.01 147.974 1047.42 148.954C1047.83 149.934 1048.52 150.772 1049.4 151.363C1050.28 151.954 1051.32 152.271 1052.39 152.276C1295.27 150.546 1208.25 498.179 1464.55 493.855C1465.97 493.835 1467.33 493.252 1468.33 492.234L1518.79 441.862C1519.53 441.113 1520.03 440.167 1520.24 439.138C1520.44 438.109 1520.34 437.042 1519.95 436.068C1519.56 435.094 1518.9 434.254 1518.04 433.652C1517.18 433.049 1516.16 432.709 1515.11 432.674Z" fill="url(#paint3_linear_691_2)" fill-opacity="0.8"/>
<path d="M1623.28 324.633C1376.28 319.228 1463.84 -29.2696 1210.36 -16.6225C1209 -16.5306 1207.71 -15.9556 1206.74 -15.0011L1156.71 34.9928C1155.95 35.7487 1155.43 36.7146 1155.22 37.7671C1155.01 38.8197 1155.11 39.9113 1155.52 40.9028C1155.94 41.8942 1156.63 42.7406 1157.53 43.3341C1158.42 43.9275 1159.48 44.2411 1160.55 44.2349C1403.49 42.5054 1316.42 390.138 1572.77 385.815C1574.18 385.747 1575.53 385.171 1576.55 384.193L1626.96 333.821C1627.69 333.072 1628.19 332.126 1628.4 331.097C1628.61 330.068 1628.51 329.002 1628.12 328.027C1627.73 327.053 1627.06 326.214 1626.2 325.611C1625.34 325.008 1624.33 324.668 1623.28 324.633Z" fill="#422A05"/>
<path d="M1623.28 324.633C1376.28 319.228 1463.84 -29.2696 1210.36 -16.6225C1209 -16.5306 1207.71 -15.9556 1206.74 -15.0011L1156.71 34.9928C1155.95 35.7487 1155.43 36.7146 1155.22 37.7671C1155.01 38.8197 1155.11 39.9113 1155.52 40.9028C1155.94 41.8942 1156.63 42.7406 1157.53 43.3341C1158.42 43.9275 1159.48 44.2411 1160.55 44.2349C1403.49 42.5054 1316.42 390.138 1572.77 385.815C1574.18 385.747 1575.53 385.171 1576.55 384.193L1626.96 333.821C1627.69 333.072 1628.19 332.126 1628.4 331.097C1628.61 330.068 1628.51 329.002 1628.12 328.027C1627.73 327.053 1627.06 326.214 1626.2 325.611C1625.34 325.008 1624.33 324.668 1623.28 324.633Z" fill="url(#paint4_linear_691_2)" fill-opacity="0.8"/>
<path d="M1268.72 -63.86C1394.24 -64.7247 1431.67 27.5883 1473.9 116.496C1474.27 117.279 1474.83 117.96 1475.52 118.485C1476.21 119.009 1477.01 119.36 1477.86 119.508C1478.72 119.656 1479.59 119.598 1480.42 119.337C1481.25 119.076 1482 118.621 1482.61 118.01L1535.67 64.935C1536.45 64.1511 1536.98 63.1445 1537.17 62.0519C1537.36 60.9592 1537.22 59.8335 1536.75 58.8277C1492.56 -33.7556 1454.92 -131.473 1318.47 -124.663C1317.1 -124.601 1315.81 -124.022 1314.85 -123.042L1264.82 -73.0481C1264.07 -72.286 1263.57 -71.3199 1263.37 -70.2716C1263.17 -69.2232 1263.29 -68.1394 1263.7 -67.1568C1264.12 -66.1743 1264.82 -65.3368 1265.71 -64.7501C1266.6 -64.1635 1267.65 -63.8537 1268.72 -63.86Z" fill="#422A05"/>
<path d="M1268.72 -63.86C1394.24 -64.7247 1431.67 27.5883 1473.9 116.496C1474.27 117.279 1474.83 117.96 1475.52 118.485C1476.21 119.009 1477.01 119.36 1477.86 119.508C1478.72 119.656 1479.59 119.598 1480.42 119.337C1481.25 119.076 1482 118.621 1482.61 118.01L1535.67 64.935C1536.45 64.1511 1536.98 63.1445 1537.17 62.0519C1537.36 60.9592 1537.22 59.8335 1536.75 58.8277C1492.56 -33.7556 1454.92 -131.473 1318.47 -124.663C1317.1 -124.601 1315.81 -124.022 1314.85 -123.042L1264.82 -73.0481C1264.07 -72.286 1263.57 -71.3199 1263.37 -70.2716C1263.17 -69.2232 1263.29 -68.1394 1263.7 -67.1568C1264.12 -66.1743 1264.82 -65.3368 1265.71 -64.7501C1266.6 -64.1635 1267.65 -63.8537 1268.72 -63.86Z" fill="url(#paint5_linear_691_2)" fill-opacity="0.8"/>
<path d="M1407 540.715C1282.18 537.85 1242.81 447.483 1201.49 360.412C1201.11 359.668 1200.56 359.022 1199.89 358.525C1199.22 358.028 1198.44 357.692 1197.62 357.546C1196.8 357.399 1195.95 357.445 1195.15 357.68C1194.35 357.915 1193.61 358.332 1193 358.899L1139.95 411.92C1139.15 412.708 1138.62 413.724 1138.42 414.828C1138.23 415.932 1138.38 417.069 1138.86 418.081C1181.8 508.611 1221.5 604.112 1356.6 601.842C1358.03 601.822 1359.39 601.239 1360.38 600.221L1410.79 549.849C1411.51 549.091 1412 548.139 1412.19 547.11C1412.39 546.08 1412.27 545.017 1411.87 544.05C1411.47 543.082 1410.8 542.252 1409.93 541.66C1409.07 541.068 1408.05 540.739 1407 540.715Z" fill="#422A05"/>
<path d="M1407 540.715C1282.18 537.85 1242.81 447.483 1201.49 360.412C1201.11 359.668 1200.56 359.022 1199.89 358.525C1199.22 358.028 1198.44 357.692 1197.62 357.546C1196.8 357.399 1195.95 357.445 1195.15 357.68C1194.35 357.915 1193.61 358.332 1193 358.899L1139.95 411.92C1139.15 412.708 1138.62 413.724 1138.42 414.828C1138.23 415.932 1138.38 417.069 1138.86 418.081C1181.8 508.611 1221.5 604.112 1356.6 601.842C1358.03 601.822 1359.39 601.239 1360.38 600.221L1410.79 549.849C1411.51 549.091 1412 548.139 1412.19 547.11C1412.39 546.08 1412.27 545.017 1411.87 544.05C1411.47 543.082 1410.8 542.252 1409.93 541.66C1409.07 541.068 1408.05 540.739 1407 540.715Z" fill="url(#paint6_linear_691_2)" fill-opacity="0.8"/>
</g>
</g>
<defs>
<radialGradient id="paint0_radial_691_2" cx="0" cy="0" r="1" gradientUnits="userSpaceOnUse" gradientTransform="translate(1260.94 264.688) rotate(121.453) scale(979.185 1411.6)">
<stop stop-color="#D4D4D4"/>
<stop offset="1" stop-color="white" stop-opacity="0"/>
</radialGradient>
<radialGradient id="paint1_radial_691_2" cx="0" cy="0" r="1" gradientUnits="userSpaceOnUse" gradientTransform="translate(505.208 352.344) rotate(71.8709) scale(786.71 1094.6)">
<stop stop-color="#EED4AD"/>
<stop offset="1" stop-color="white" stop-opacity="0"/>
</radialGradient>
<radialGradient id="paint2_radial_691_2" cx="0" cy="0" r="1" gradientUnits="userSpaceOnUse" gradientTransform="translate(750 759.301) rotate(90) scale(503.258 686.261)">
<stop stop-color="#A9BFCB"/>
<stop offset="1" stop-color="white" stop-opacity="0"/>
</radialGradient>
<linearGradient id="paint3_linear_691_2" x1="1337.75" y1="-125" x2="1337.75" y2="601.882" gradientUnits="userSpaceOnUse">
<stop stop-color="#422A05"/>
<stop offset="1" stop-color="white"/>
</linearGradient>
<linearGradient id="paint4_linear_691_2" x1="1337.75" y1="-125" x2="1337.75" y2="601.882" gradientUnits="userSpaceOnUse">
<stop stop-color="#422A05"/>
<stop offset="1" stop-color="white"/>
</linearGradient>
<linearGradient id="paint5_linear_691_2" x1="1337.75" y1="-125" x2="1337.75" y2="601.882" gradientUnits="userSpaceOnUse">
<stop stop-color="#422A05"/>
<stop offset="1" stop-color="white"/>
</linearGradient>
<linearGradient id="paint6_linear_691_2" x1="1337.75" y1="-125" x2="1337.75" y2="601.882" gradientUnits="userSpaceOnUse">
<stop stop-color="#422A05"/>
<stop offset="1" stop-color="white"/>
</linearGradient>
<clipPath id="clip0_691_2">
<rect width="1500" height="500" fill="white"/>
</clipPath>
<clipPath id="clip1_691_2">
<rect width="1500" height="1100" fill="white" transform="translate(0 -245)"/>
</clipPath>
</defs>
</svg>
