<svg width="300" height="300" viewBox="0 0 300 300" fill="none" xmlns="http://www.w3.org/2000/svg">
<g clip-path="url(#clip0_759_4)">
<rect width="300" height="300" rx="64" fill="#171717"/>
<path d="M198.801 203.443C130.856 201.881 154.947 106.067 85.2019 109.562C84.827 109.575 84.4709 109.729 84.2049 109.993L70.4254 123.764C70.2206 123.972 70.082 124.237 70.0267 124.524C69.9715 124.811 70.0022 125.108 70.1149 125.378C70.2277 125.648 70.4175 125.878 70.6606 126.041C70.9037 126.203 71.1894 126.291 71.4819 126.292C138.311 125.816 114.368 221.466 184.887 220.277C185.28 220.271 185.654 220.111 185.929 219.831L199.813 205.971C200.015 205.765 200.153 205.504 200.21 205.221C200.266 204.938 200.24 204.645 200.132 204.377C200.025 204.109 199.842 203.878 199.605 203.712C199.369 203.546 199.089 203.452 198.801 203.443Z" fill="#F5F5F5"/>
<path d="M228.562 173.716C160.602 172.228 184.694 76.34 114.948 79.8198C114.573 79.8451 114.22 80.0033 113.951 80.266L100.187 94.0217C99.9768 94.2297 99.8337 94.4954 99.7755 94.785C99.7174 95.0746 99.7469 95.375 99.8602 95.6478C99.9736 95.9206 100.166 96.1535 100.412 96.3168C100.658 96.48 100.948 96.5663 101.243 96.5646C168.087 96.0887 144.129 191.739 214.663 190.55C215.053 190.531 215.423 190.372 215.705 190.103L229.574 176.244C229.776 176.038 229.914 175.777 229.971 175.494C230.028 175.211 230.001 174.918 229.894 174.65C229.786 174.381 229.603 174.15 229.367 173.985C229.13 173.819 228.851 173.725 228.562 173.716Z" fill="#F5F5F5"/>
<path d="M131.004 66.8225C165.542 66.5846 175.84 91.9843 187.462 116.447C187.564 116.662 187.716 116.85 187.906 116.994C188.095 117.138 188.317 117.235 188.552 117.276C188.786 117.317 189.027 117.3 189.255 117.229C189.482 117.157 189.689 117.032 189.857 116.864L204.455 102.26C204.672 102.045 204.816 101.768 204.869 101.467C204.923 101.166 204.882 100.857 204.753 100.58C192.595 75.1057 182.238 48.2189 144.695 50.0926C144.318 50.1096 143.961 50.2691 143.698 50.5388L129.933 64.2945C129.727 64.5041 129.588 64.77 129.534 65.0584C129.479 65.3469 129.511 65.6451 129.625 65.9154C129.74 66.1858 129.932 66.4162 130.178 66.5776C130.423 66.739 130.711 66.8243 131.004 66.8225Z" fill="#F5F5F5"/>
<path d="M169.054 233.17C134.71 232.382 123.877 207.517 112.508 183.56C112.403 183.355 112.253 183.178 112.068 183.041C111.884 182.904 111.67 182.812 111.443 182.771C111.217 182.731 110.984 182.744 110.764 182.808C110.543 182.873 110.34 182.988 110.172 183.144L95.5737 197.732C95.3543 197.949 95.2078 198.229 95.1545 198.533C95.1012 198.836 95.1437 199.149 95.2761 199.428C107.091 224.337 118.014 250.614 155.185 249.989C155.578 249.983 155.952 249.823 156.227 249.543L170.096 235.683C170.295 235.475 170.429 235.213 170.482 234.93C170.535 234.646 170.504 234.354 170.394 234.088C170.284 233.821 170.098 233.593 169.86 233.43C169.623 233.267 169.343 233.177 169.054 233.17Z" fill="#F5F5F5"/>
<rect width="180.575" height="63.3811" transform="translate(173.079 300.557) rotate(-45)" fill="#5E5CDE"/>
<path d="M235.092 290.432L222.75 278.09L227.475 273.365C228.366 272.473 229.248 271.873 230.12 271.563C230.992 271.246 231.816 271.182 232.591 271.37C233.37 271.555 234.065 271.953 234.676 272.564C235.178 273.066 235.512 273.592 235.677 274.143C235.837 274.689 235.865 275.235 235.761 275.782C235.656 276.328 235.452 276.851 235.146 277.349L235.267 277.469C235.729 277.055 236.283 276.77 236.93 276.613C237.577 276.449 238.25 276.459 238.949 276.644C239.648 276.828 240.311 277.234 240.938 277.861C241.576 278.5 241.996 279.229 242.197 280.049C242.394 280.864 242.328 281.73 241.998 282.646C241.669 283.562 241.032 284.492 240.088 285.436L235.092 290.432ZM235.46 286.328L237.864 283.924C238.676 283.112 239.106 282.373 239.154 281.706C239.202 281.031 238.981 280.448 238.491 279.958C238.125 279.593 237.705 279.354 237.231 279.241C236.753 279.125 236.263 279.149 235.761 279.313C235.255 279.474 234.771 279.785 234.309 280.247L231.844 282.712L235.46 286.328ZM230.235 281.103L232.446 278.891C232.832 278.506 233.109 278.088 233.278 277.638C233.443 277.184 233.483 276.738 233.399 276.3C233.314 275.854 233.091 275.45 232.73 275.089C232.252 274.611 231.689 274.386 231.042 274.414C230.399 274.438 229.749 274.779 229.09 275.438L226.83 277.698L230.235 281.103ZM250.428 275.458C249.5 276.386 248.505 276.995 247.445 277.284C246.384 277.565 245.317 277.531 244.245 277.181C243.168 276.828 242.145 276.167 241.177 275.199C240.225 274.247 239.57 273.23 239.213 272.149C238.855 271.061 238.803 269.988 239.056 268.931C239.305 267.871 239.871 266.898 240.755 266.014C241.326 265.444 241.957 264.998 242.648 264.677C243.339 264.347 244.07 264.178 244.841 264.17C245.617 264.158 246.412 264.335 247.228 264.701C248.039 265.062 248.851 265.649 249.662 266.46L250.331 267.129L242.744 274.717L241.274 273.246L246.77 267.75C246.348 267.336 245.886 267.055 245.384 266.906C244.877 266.754 244.371 266.742 243.865 266.87C243.363 266.995 242.903 267.266 242.485 267.684C242.039 268.13 241.756 268.63 241.635 269.184C241.511 269.735 241.529 270.279 241.689 270.818C241.85 271.348 242.135 271.822 242.545 272.24L243.829 273.523C244.367 274.062 244.928 274.425 245.51 274.614C246.089 274.799 246.657 274.817 247.216 274.668C247.77 274.516 248.284 274.202 248.759 273.728C249.076 273.411 249.319 273.079 249.488 272.734C249.652 272.384 249.741 272.027 249.753 271.661C249.765 271.296 249.689 270.934 249.524 270.576L251.79 268.769C252.2 269.435 252.425 270.151 252.465 270.914C252.505 271.669 252.356 272.437 252.019 273.216C251.677 273.991 251.147 274.739 250.428 275.458ZM251.574 255.436L253.262 257.124L247.94 262.445L246.253 260.758L251.574 255.436ZM245.349 257.226L247.531 255.045L256.221 263.735C256.514 264.028 256.783 264.209 257.028 264.277C257.273 264.338 257.498 264.321 257.703 264.229C257.908 264.137 258.101 264 258.282 263.819C258.418 263.683 258.533 263.548 258.625 263.415C258.722 263.279 258.792 263.172 258.836 263.096L260.909 264.434C260.833 264.591 260.711 264.802 260.542 265.067C260.377 265.328 260.144 265.617 259.843 265.935C259.312 266.497 258.738 266.907 258.119 267.164C257.496 267.417 256.864 267.479 256.221 267.351C255.582 267.218 254.975 266.861 254.401 266.278L245.349 257.226ZM265.506 260.392C264.92 260.978 264.287 261.402 263.608 261.663C262.929 261.916 262.246 261.973 261.559 261.832C260.876 261.687 260.231 261.312 259.624 260.705C259.102 260.183 258.766 259.654 258.618 259.12C258.469 258.586 258.459 258.049 258.588 257.511C258.716 256.973 258.937 256.442 259.251 255.92C259.564 255.39 259.922 254.875 260.323 254.377C260.809 253.779 261.199 253.288 261.492 252.907C261.782 252.521 261.955 252.204 262.011 251.955C262.067 251.697 261.991 251.464 261.782 251.256L261.746 251.219C261.292 250.765 260.805 250.548 260.287 250.569C259.769 250.589 259.257 250.852 258.75 251.358C258.216 251.892 257.909 252.433 257.828 252.979C257.752 253.522 257.818 254.006 258.027 254.432L255.701 256.179C255.299 255.456 255.094 254.721 255.086 253.973C255.074 253.222 255.241 252.485 255.587 251.762C255.928 251.035 256.422 250.348 257.069 249.701C257.515 249.255 258.011 248.863 258.558 248.526C259.104 248.188 259.681 247.957 260.287 247.833C260.89 247.704 261.507 247.734 262.137 247.923C262.772 248.108 263.397 248.507 264.012 249.122L270.207 255.317L268.11 257.415L266.838 256.143L266.766 256.215C266.89 256.605 266.944 257.033 266.928 257.499C266.912 257.957 266.792 258.435 266.567 258.933C266.342 259.423 265.988 259.91 265.506 260.392ZM264.47 258.222C264.907 257.784 265.201 257.318 265.349 256.824C265.494 256.326 265.508 255.846 265.392 255.384C265.279 254.918 265.052 254.514 264.711 254.172L263.62 253.082C263.608 253.206 263.543 253.375 263.427 253.588C263.314 253.797 263.176 254.02 263.011 254.257C262.846 254.494 262.68 254.725 262.511 254.95C262.342 255.175 262.196 255.37 262.071 255.534C261.79 255.904 261.571 256.268 261.414 256.625C261.257 256.983 261.195 257.326 261.227 257.656C261.255 257.981 261.41 258.284 261.691 258.566C262.093 258.967 262.543 259.124 263.041 259.036C263.539 258.947 264.016 258.676 264.47 258.222Z" fill="white"/>
</g>
<defs>
<clipPath id="clip0_759_4">
<rect width="300" height="300" rx="64" fill="white"/>
</clipPath>
</defs>
</svg>
