<svg width="332" height="144" viewBox="0 0 332 144" fill="none" xmlns="http://www.w3.org/2000/svg">
<g filter="url(#filter0_d_691_4)">
<path d="M62.3269 62.4639C60.3104 57.2221 58.3443 53.1395 56.4287 50.2162C54.7146 47.2929 52.7486 44.7224 50.5304 42.5047C47.7073 39.6822 43.876 37.5653 39.0364 36.154C34.1968 34.7428 29.3068 34.0876 24.3664 34.1884L36.1629 22.3943C41.2041 22.1927 45.8925 22.9487 50.2279 24.6624C54.6642 26.2752 58.6972 28.8961 62.3269 32.5251C65.2508 35.4484 67.8218 38.6237 70.04 42.0511C72.3589 45.5792 74.8292 50.6698 77.4506 57.3229C79.4671 62.5647 81.3324 66.6473 83.0464 69.5706C84.962 72.4939 86.9785 75.0141 89.0958 77.1309C92.0198 80.0543 95.9015 82.2216 100.741 83.6328C105.581 85.0441 110.471 85.6993 115.411 85.5985L103.766 97.2414C98.7246 97.443 93.9858 96.7374 89.5496 95.1245C85.1133 93.5116 81.0803 90.8907 77.4506 87.2618C74.6275 84.4392 72.0061 81.2135 69.5863 77.5846C67.3681 73.9556 64.9483 68.9154 62.3269 62.4639Z" fill="url(#paint0_linear_691_4)" shape-rendering="crispEdges"/>
<path d="M41.9605 82.8264C39.944 77.5846 37.9779 73.502 36.0622 70.5787C34.3482 67.6554 32.3821 65.0849 30.164 62.8672C27.3409 60.0447 23.5096 57.9278 18.67 56.5165C13.8304 55.1053 8.94041 54.4501 4 54.5509L15.7965 42.7568C20.8377 42.5552 25.5261 43.3112 29.8615 45.0249C34.2978 46.6377 38.3308 49.2587 41.9605 52.8876C44.8844 55.8109 47.4554 58.9863 49.6736 62.4136C51.9925 65.9417 54.4627 71.0323 57.0842 77.6854C59.1007 82.9272 60.9659 87.0098 62.68 89.9331C64.5956 92.8565 66.6121 95.3765 68.7294 97.4934C71.6533 100.417 75.5351 102.584 80.3747 103.995C85.2142 105.407 90.1042 106.062 95.0447 105.961L83.3994 117.604C78.3582 117.805 73.6194 117.1 69.1831 115.487C64.7468 113.874 60.7139 111.253 57.0842 107.624C54.2611 104.802 51.6396 101.576 49.2199 97.9471C47.0017 94.3181 44.5819 89.2779 41.9605 82.8264Z" fill="url(#paint1_linear_691_4)" shape-rendering="crispEdges"/>
<path d="M76.7959 29.8538C78.7116 32.7771 80.6777 36.8597 82.6942 42.1015C83.6604 44.4794 84.5993 46.6656 85.5107 48.6601L97.6464 36.5269C95.0886 30.0858 92.6756 25.1398 90.4073 21.6886C88.1891 18.2613 85.6181 15.086 82.6942 12.1627C79.0645 8.5337 75.0315 5.91279 70.5952 4.29993C66.2598 2.58625 61.5714 1.83022 56.5302 2.03183L44.7337 13.8259C49.6741 13.7251 54.5641 14.3803 59.4037 15.7916C64.2433 17.2029 68.0746 19.3197 70.8977 22.1423C73.1159 24.36 75.0819 26.9305 76.7959 29.8538Z" fill="url(#paint2_linear_691_4)" shape-rendering="crispEdges"/>
<path d="M33.5244 90.5553L21.3971 102.68C21.4627 102.849 21.5284 103.018 21.5941 103.189C24.2155 109.64 26.6353 114.681 28.8535 118.31C31.2733 121.939 33.8947 125.164 36.7178 127.987C40.3475 131.616 44.3805 134.237 48.8168 135.85C53.253 137.462 57.9918 138.168 63.033 137.966L74.6783 126.324C69.7379 126.424 64.8479 125.769 60.0083 124.358C55.1687 122.947 51.287 120.779 48.363 117.856C46.2457 115.739 44.2292 113.219 42.3136 110.296C40.5995 107.372 38.7343 103.29 36.7178 98.0479C35.6272 95.2799 34.5627 92.7824 33.5244 90.5553Z" fill="url(#paint3_linear_691_4)" shape-rendering="crispEdges"/>
<path d="M181.087 111.027C176.933 111.027 173.118 110.536 169.644 109.553C166.245 108.571 163.223 107.211 160.58 105.473C158.012 103.736 155.859 101.809 154.122 99.6933C152.46 97.5022 151.289 95.2355 150.609 92.8933L163.526 88.9267C164.508 91.7222 166.434 94.1778 169.304 96.2933C172.174 98.4089 175.724 99.5044 179.954 99.58C184.864 99.58 188.754 98.56 191.624 96.52C194.494 94.48 195.929 91.7978 195.929 88.4733C195.929 85.4511 194.721 82.9955 192.304 81.1067C189.887 79.1422 186.639 77.6311 182.56 76.5733L172.816 74.08C169.115 73.0978 165.754 71.6622 162.732 69.7733C159.787 67.8844 157.445 65.5044 155.708 62.6333C154.046 59.7622 153.215 56.3622 153.215 52.4333C153.215 45.0289 155.632 39.2867 160.466 35.2067C165.301 31.0511 172.212 28.9733 181.2 28.9733C186.261 28.9733 190.68 29.7667 194.456 31.3533C198.308 32.8644 201.481 34.98 203.973 37.7C206.466 40.3444 208.317 43.3667 209.525 46.7667L196.836 50.8467C195.703 47.8244 193.739 45.3311 190.944 43.3667C188.149 41.4022 184.675 40.42 180.52 40.42C176.215 40.42 172.816 41.44 170.324 43.48C167.906 45.52 166.698 48.3533 166.698 51.98C166.698 54.9267 167.642 57.2311 169.53 58.8933C171.494 60.48 174.138 61.6889 177.461 62.52L187.205 64.9C194.305 66.6378 199.819 69.6222 203.747 73.8533C207.675 78.0844 209.638 82.7689 209.638 87.9067C209.638 92.44 208.543 96.4444 206.353 99.92C204.162 103.396 200.914 106.116 196.609 108.08C192.379 110.044 187.205 111.027 181.087 111.027Z" fill="url(#paint4_linear_691_4)" shape-rendering="crispEdges"/>
<path d="M222.594 109.667L222.708 53H235.284L235.171 109.667H222.594ZM228.939 42.2333C226.9 42.2333 225.125 41.5155 223.614 40.08C222.179 38.5689 221.461 36.7933 221.461 34.7533C221.461 32.7133 222.179 30.9755 223.614 29.54C225.125 28.1044 226.9 27.3867 228.939 27.3867C230.979 27.3867 232.716 28.1044 234.151 29.54C235.662 30.9755 236.417 32.7133 236.417 34.7533C236.417 36.7933 235.662 38.5689 234.151 40.08C232.716 41.5155 230.979 42.2333 228.939 42.2333Z" fill="url(#paint5_linear_691_4)" shape-rendering="crispEdges"/>
<path d="M250.126 109.667V30.3333H262.816V109.667H250.126Z" fill="url(#paint6_linear_691_4)" shape-rendering="crispEdges"/>
<path d="M289.025 93.8L281.321 85.0733L310.779 53H326.074L289.025 93.8ZM276.902 109.667V30.3333H289.592V109.667H276.902ZM312.931 109.667L292.991 80.3133L301.261 71.4733L328 109.667H312.931Z" fill="url(#paint7_linear_691_4)" shape-rendering="crispEdges"/>
</g>
<defs>
<filter id="filter0_d_691_4" x="0" y="0" width="332" height="144" filterUnits="userSpaceOnUse" color-interpolation-filters="sRGB">
<feFlood flood-opacity="0" result="BackgroundImageFix"/>
<feColorMatrix in="SourceAlpha" type="matrix" values="0 0 0 0 0 0 0 0 0 0 0 0 0 0 0 0 0 0 127 0" result="hardAlpha"/>
<feOffset dy="2"/>
<feGaussianBlur stdDeviation="2"/>
<feComposite in2="hardAlpha" operator="out"/>
<feColorMatrix type="matrix" values="0 0 0 0 0 0 0 0 0 0 0 0 0 0 0 0 0 0 0.12 0"/>
<feBlend mode="normal" in2="BackgroundImageFix" result="effect1_dropShadow_691_4"/>
<feBlend mode="normal" in="SourceGraphic" in2="effect1_dropShadow_691_4" result="shape"/>
</filter>
<linearGradient id="paint0_linear_691_4" x1="166" y1="2" x2="179.597" y2="171.382" gradientUnits="userSpaceOnUse">
<stop stop-color="#422A05"/>
<stop offset="1" stop-opacity="0"/>
</linearGradient>
<linearGradient id="paint1_linear_691_4" x1="166" y1="2" x2="179.597" y2="171.382" gradientUnits="userSpaceOnUse">
<stop stop-color="#422A05"/>
<stop offset="1" stop-opacity="0"/>
</linearGradient>
<linearGradient id="paint2_linear_691_4" x1="166" y1="2" x2="179.597" y2="171.382" gradientUnits="userSpaceOnUse">
<stop stop-color="#422A05"/>
<stop offset="1" stop-opacity="0"/>
</linearGradient>
<linearGradient id="paint3_linear_691_4" x1="166" y1="2" x2="179.597" y2="171.382" gradientUnits="userSpaceOnUse">
<stop stop-color="#422A05"/>
<stop offset="1" stop-opacity="0"/>
</linearGradient>
<linearGradient id="paint4_linear_691_4" x1="166" y1="2" x2="179.597" y2="171.382" gradientUnits="userSpaceOnUse">
<stop stop-color="#422A05"/>
<stop offset="1" stop-opacity="0"/>
</linearGradient>
<linearGradient id="paint5_linear_691_4" x1="166" y1="2" x2="179.597" y2="171.382" gradientUnits="userSpaceOnUse">
<stop stop-color="#422A05"/>
<stop offset="1" stop-opacity="0"/>
</linearGradient>
<linearGradient id="paint6_linear_691_4" x1="166" y1="2" x2="179.597" y2="171.382" gradientUnits="userSpaceOnUse">
<stop stop-color="#422A05"/>
<stop offset="1" stop-opacity="0"/>
</linearGradient>
<linearGradient id="paint7_linear_691_4" x1="166" y1="2" x2="179.597" y2="171.382" gradientUnits="userSpaceOnUse">
<stop stop-color="#422A05"/>
<stop offset="1" stop-opacity="0"/>
</linearGradient>
</defs>
</svg>
